<svg xmlns="http://www.w3.org/2000/svg" width="29" height="30" class="modal-icons item-icon" data-test-id="bot"><path d="M25 19.9v-7.8a3.12 3.12 0 0 1 3.1 3.1v1.7c0 1.7-1.4 3-3.1 3" fill="#dadfe3"></path><path d="M25 20.4a.47.47 0 0 1-.5-.5v-7.8a.47.47 0 0 1 .5-.5c2 0 3.6 1.6 3.6 3.6v1.7c0 1.9-1.6 3.5-3.6 3.5zm.5-7.7v6.7a2.57 2.57 0 0 0 2.1-2.5v-1.7c0-1.3-.9-2.3-2.1-2.5z" fill="#6f7c87"></path><path d="M4 19.9v-7.8a3.12 3.12 0 0 0-3.1 3.1v1.7c0 1.7 1.4 3 3.1 3" fill="#dadfe3"></path><g fill="#6f7c87"><path d="M4 20.4c-2 0-3.6-1.6-3.6-3.6v-1.7c0-2 1.6-3.6 3.6-3.6a.47.47 0 0 1 .5.5v7.8c0 .4-.2.6-.5.6zm-.5-7.7a2.57 2.57 0 0 0-2.1 2.5v1.7a2.57 2.57 0 0 0 2.1 2.5v-6.7z"></path><path d="M4 13.8a.47.47 0 0 1-.5-.5V3.6a.47.47 0 0 1 .5-.5.47.47 0 0 1 .5.5v9.7a.47.47 0 0 1-.5.5zm21 0a.47.47 0 0 1-.5-.5V3.6a.47.47 0 0 1 .5-.5.47.47 0 0 1 .5.5v9.7a.47.47 0 0 1-.5.5z"></path></g><path d="M8 25.1H4v-4h2.7zm13 0h4v-4h-2.7z" fill="#bcead6"></path><path d="M4.8 3.6c0-.5-.4-.8-.8-.8-.5 0-.8.4-.8.8 0 .5.4.8.8.8.5.1.8-.3.8-.8m21 0c0-.5-.4-.8-.8-.8-.5 0-.8.4-.8.8 0 .5.4.8.8.8.5.1.8-.3.8-.8" fill="#6f7c87"></path><path d="M25.5 9.4c0-1.9-1.2-3.6-3-4.4l-6-2.4v-.4c0-.7-.6-1.3-1.3-1.3h-1.4c-.7 0-1.3.6-1.3 1.3v.4L6.5 5c-1.8.7-3 2.4-3 4.4v15.7a.47.47 0 0 0 .5.5h21a.47.47 0 0 0 .5-.5V9.4zm-2 5.2v2.2c0 .6-.5 1.2-1.1 1.2h-3.8c-.5 0-.9-.3-1.1-.8l-.1-.2a2.16 2.16 0 0 0-2.1-1.5h-1.6a2.16 2.16 0 0 0-2.1 1.5l-.1.2c-.2.5-.6.8-1.1.8H6.6c-.6 0-1.1-.5-1.1-1.2v-2.2h18zM13.8 2h1.4c.2 0 .3.1.3.3V3l.5 7.6-1.6.8-1.6-.8.6-7.6v-.7c.1-.2.2-.3.4-.3zM4.5 9.4c0-1.5.9-2.9 2.3-3.4l5.5-2.2-.2 3.5-.2 3.6v.3l1.5.8.9.5.2.1.2-.1.9-.5 1.5-.8v-.3L17 9.4l-.4-5.7L22.2 6c1.4.6 2.3 1.9 2.3 3.4v4.2h-20V9.4zm0 15.2v-3h1.8l1 3H4.5zm20 0h-2.8l1-3h1.8v3zm0-4h-2.2a.55.55 0 0 0-.5.3l-1.2 3.7H8.4L7.1 21a.55.55 0 0 0-.5-.3H4.5v-3.5c.2 1 1 1.8 2.1 1.8h3.8c.9 0 1.8-.6 2.1-1.5l.1-.2c.2-.5.6-.8 1.1-.8h1.6c.5 0 1 .3 1.1.8l.1.2c.3.9 1.1 1.5 2 1.5h3.8c1.1 0 1.9-.8 2.1-1.8v3.4h.1zm-7.9-.4c-.2-.1-.5 0-.6.2-.3.6-.9 1.1-1.6 1.1a1.78 1.78 0 0 1-1.6-1c-.1-.2-.3-.3-.6-.2-.2.1-.3.3-.2.6.4.9 1.3 1.6 2.4 1.6 1 0 2-.6 2.4-1.6.2-.4.1-.6-.2-.7zM8.7 17c.5 0 .8-.4.8-.8 0-.5-.4-.8-.8-.8-.5 0-.8.4-.8.8-.1.4.3.8.8.8zm11.6 0c.5 0 .8-.4.8-.8 0-.5-.4-.8-.8-.8-.5 0-.8.4-.8.8s.4.8.8.8z" fill="#02b875"></path><path d="M24.7 25.1H4.3a3.37 3.37 0 0 0-3.4 3.4v.1H28v-.1c.1-1.9-1.5-3.4-3.3-3.4" fill="#dadfe3"></path><path d="M28.1 29.1H.9a.47.47 0 0 1-.5-.5v-.1c0-2.1 1.7-3.9 3.9-3.9h20.3c2.1 0 3.9 1.7 3.9 3.9v.1c.1.3-.2.5-.4.5zm-26.6-1h26.1c-.2-1.4-1.4-2.5-2.9-2.5H4.3c-1.4 0-2.6 1.1-2.8 2.5z" fill="#6f7c87"></path></svg>