<svg xmlns="http://www.w3.org/2000/svg" width="32" height="32" viewBox="0 0 32 32" class="modal-icons item-icon" data-test-id="freshchat"><g fill="none" fill-rule="evenodd" transform="translate(1 1)"><path fill="#02B875" fill-opacity=".3" fill-rule="nonzero" stroke="#02B875" d="M19.3 8h-8.5c-2.4 0-4.3 2.046-4.3 4.63v7.862c0 .539.4.97.9.97h11.8c2.4 0 4.3-2.047 4.3-4.631v-4.2C23.5 10.046 21.6 8 19.3 8zm-3.1 9.8H10c-.5 0-.8-.43-.8-.862 0-.43.4-.861.8-.861h6.2c.5 0 .8.43.8.861s-.3.862-.8.862zm3.8-4.308H10c-.5 0-.8-.43-.8-.861 0-.539.4-.862.8-.862h10c.5 0 .8.431.8.862 0 .43-.4.861-.8.861z"></path><rect width="30" height="30" stroke="#6F7C87" rx="3.01"></rect></g></svg>