<svg xmlns="http://www.w3.org/2000/svg" width="28" height="28" fill="none" fill-rule="evenodd" class="modal-icons item-icon" data-test-id="admin-email"><g stroke="#6f7c87" stroke-linecap="round" stroke-linejoin="round" stroke-width=".875"><path d="M18.62 18.996h7.875a1.06 1.06 0 0 0 1.067-1.059V1.496A1.06 1.06 0 0 0 26.504.438H1.496A1.06 1.06 0 0 0 .438 1.496v16.44a1.06 1.06 0 0 0 1.059 1.059H9.37"></path><path d="M26.915 1.033l-12.197 11.13a1.06 1.06 0 0 1-1.426 0L1.085 1.033M26.915 18.4l-9.52-8.68m-6.78 0l-9.53 8.68"></path></g><path d="M19.688 23.09v-2.44h-1.83a4.01 4.01 0 0 0-.262-.647l1.295-1.295-1.75-1.75-1.295 1.295a4.01 4.01 0 0 0-.647-.263v-1.802h-2.415v1.83a4.01 4.01 0 0 0-.647.262l-1.295-1.295-1.75 1.75 1.295 1.295a4.01 4.01 0 0 0-.263.648h-1.81v2.44h1.83c.07.223.156.44.263.648L9.11 25.06l1.75 1.75 1.295-1.295a4.01 4.01 0 0 0 .647.262v1.785h2.44v-1.837a4.01 4.01 0 0 0 .648-.263l1.295 1.295 1.75-1.75-1.348-1.27a4.01 4.01 0 0 0 .263-.648h1.837zM14 23.494a1.63 1.63 0 0 1-1.148-2.781 1.63 1.63 0 0 1 2.775 1.163A1.63 1.63 0 0 1 14 23.494z" stroke="#02b875" fill-opacity=".3" fill="#02b875" fill-rule="nonzero" stroke-linejoin="round" stroke-width=".875"></path></svg>