<svg width="28" height="28" viewBox="0 0 28 28" xmlns="http://www.w3.org/2000/svg" class="modal-icons item-icon" data-test-id="feedback-form"><g fill="none" fill-rule="evenodd"><path d="M24 .508a3.5 3.5 0 0 1 3.5 3.5v19.999a3.5 3.5 0 0 1-3.506 3.494l-20-.036a3.5 3.5 0 0 1-3.494-3.5V4.008A3.5 3.5 0 0 1 4 .508h20z" fill="#FFF" stroke="#707C87"></path><rect stroke="#02B875" fill="#BCEAD6" x="14.5" y="21.5" width="8" height="3" rx="1"></rect><rect stroke="#707C87" fill="#FFF" x="5.5" y="15.5" width="17" height="3" rx="1"></rect><rect stroke="#707C87" fill="#FFF" x="5.5" y="7.5" width="17" height="3" rx="1"></rect><rect fill="#707C87" x="5" y="5" width="9" height="1" rx=".5"></rect><rect fill="#707C87" x="5" y="13" width="9" height="1" rx=".5"></rect></g></svg>