<svg xmlns="http://www.w3.org/2000/svg" width="30" height="30" class="modal-icons item-icon" data-test-id="portals"><style>.B{stroke-linecap:round}.C{stroke-linejoin:round}</style><g fill="none" fill-rule="evenodd"><g stroke="#6f7c87" class="C"><path d="M8.43 24.188H2.304a.875.875 0 0 1-.875-.875v-21c0-.483.392-.875.875-.875H27.68c.483 0 .875.392.875.875v21a.875.875 0 0 1-.875.875h-6.125" class="B"></path><circle cx="4.535" cy="4.01" r="1"></circle><circle cx="7.16" cy="4.01" r="1"></circle><circle cx="9.785" cy="4.01" r="1"></circle><path d="M1.438 6.46h27.125" class="B"></path></g><g opacity=".3" fill-rule="nonzero" fill="#02b875"><path d="M15 24.704a2.78 2.78 0 0 0 .543-.061 2.86 2.86 0 0 1-.543.061zm0-6.284a2.92 2.92 0 0 0-.543.06c.178-.038.36-.06.543-.06zM15 24.704a2.86 2.86 0 0 1-.543-.061 2.78 2.78 0 0 0 .543.061zm3.14-3.14a2.86 2.86 0 0 1-.061.543 2.78 2.78 0 0 0 .061-.543zm-.06-.543a2.86 2.86 0 0 1 .061.543 2.78 2.78 0 0 0-.061-.543zm-2.266-2.52h-.087a3.135 3.135 0 0 1 2.32 2.32v-.088l3.727-.997a7 7 0 0 0-4.944-4.944l-1.015 3.7z"></path><path d="M15 18.42a2.86 2.86 0 0 1 .543.061 2.603 2.603 0 0 0-.543-.06zm-3.14 3.143a2.92 2.92 0 0 0 .06.543 2.603 2.603 0 0 1-.06-.543zm6.168.813v-.087a3.133 3.133 0 0 1-2.3 2.336h.087l.998 3.727a7 7 0 0 0 4.944-4.944l-3.728-1.032zm-3.422 2.25h-.122a3.28 3.28 0 0 1-2.424-2.336l-.087.07-3.728.997c.74 2.435 2.7 4.3 5.154 4.953l1.207-3.684zM11.973 20.75v.096a3.126 3.126 0 0 1 2.3-2.345h-.096l-.998-3.727a7 7 0 0 0-4.944 4.944l3.728 1.033zm-.113.813a2.86 2.86 0 0 1 .061-.543c-.038.178-.06.36-.06.543z"></path></g><g class="C"><g stroke="#02b875" stroke-width=".88"><path d="M15 14.563a7 7 0 1 0 0 14 7 7 0 0 0 4.95-11.95 7 7 0 0 0-4.95-2.05zm0 10.14a3.14 3.14 0 1 1 0-6.282 3.14 3.14 0 1 1 0 6.282z"></path><path d="M21.764 19.75l-3.736.998a2.96 2.96 0 0 1 0 1.627l3.736.998M16.8 28.326l-.998-3.7a2.963 2.963 0 0 1-1.628 0l-.997 3.736m-4.95-4.988l3.736-.998a2.96 2.96 0 0 1 0-1.627l-3.736-.998M13.2 14.8l.997 3.7a2.963 2.963 0 0 1 1.628 0l.998-3.736" class="B"></path></g><path d="M4.098 9.085h6.125m14 0h1.75m-6.125 0h1.75m-6.125 0h1.75" stroke="#6f7c87" class="B"></path></g></g></svg>