<svg width="29" height="29" viewBox="0 0 29 29" xmlns="http://www.w3.org/2000/svg" class="modal-icons item-icon" data-test-id="admin-phone"><g stroke-width=".903" fill="none" fill-rule="evenodd" stroke-linecap="round" stroke-linejoin="round"><path d="M17.161 20.774l2.33-2.33a1.274 1.274 0 0 1 1.807 0l3.613 3.613a1.274 1.274 0 0 1 0 1.806l-1.806 1.807a6.494 6.494 0 0 1-4.517 1.887c-2.185 0-4.11-1.336-5.87-2.474a33.329 33.329 0 0 1-6.16-5.212 34.323 34.323 0 0 1-5.375-7.479 6.449 6.449 0 0 1 1.174-7.506L4.164 3.08a1.274 1.274 0 0 1 1.806 0l3.613 3.613a1.274 1.274 0 0 1 0 1.806l-2.357 2.34a1.283 1.283 0 0 0-.163 1.626 33.311 33.311 0 0 0 8.454 8.445c.509.36 1.202.302 1.644-.136z" stroke="#02B875" fill-opacity=".3" fill="#02B875" fill-rule="nonzero"></path><path d="M15.174.452c6.85 0 12.401 5.552 12.401 12.4M15.174 4.372a8.5 8.5 0 0 1 8.49 8.49M15.174 8.283a4.58 4.58 0 0 1 4.57 4.57" stroke="#6F7C87"></path></g></svg>