<svg width="28" height="28" viewBox="0 0 28 28" xmlns="http://www.w3.org/2000/svg" class="modal-icons item-icon" data-test-id="admin-twitter"><g stroke-width=".875" fill="none" fill-rule="evenodd" stroke-linecap="round" stroke-linejoin="round"><path d="M22.54 8.75a7.367 7.367 0 0 1-1.75 1.811v.455a9.923 9.923 0 0 1-.411 2.809 10.168 10.168 0 0 1-1.252 2.695 10.553 10.553 0 0 1-1.994 2.284 8.907 8.907 0 0 1-2.792 1.584 10.246 10.246 0 0 1-3.5.586 9.712 9.712 0 0 1-5.372-1.575c.291.017.583.017.875 0a6.851 6.851 0 0 0 4.375-1.497 3.5 3.5 0 0 1-3.343-2.415c.22.035.443.052.665.053.31-.001.62-.042.919-.122a3.439 3.439 0 0 1-2.013-1.208 3.377 3.377 0 0 1-.822-2.223 3.5 3.5 0 0 0 1.584.447A3.5 3.5 0 0 1 6.65 7.7a9.922 9.922 0 0 0 3.194 2.625 9.756 9.756 0 0 0 4.025 1.05 3.832 3.832 0 0 1-.088-.805 3.5 3.5 0 0 1 3.5-3.5 3.369 3.369 0 0 1 2.555 1.102 6.878 6.878 0 0 0 2.223-.875 3.395 3.395 0 0 1-1.54 1.926 7 7 0 0 0 2.021-.473z" stroke="#02B875" fill-opacity=".3" fill="#02B875"></path><rect stroke="#6F7C87" x=".438" y=".438" width="27.125" height="27.125" rx="3.01"></rect></g></svg>