<svg width="33" height="28" viewBox="0 0 33 28" xmlns="http://www.w3.org/2000/svg" class="modal-icons item-icon" data-test-id="help-widget"><g fill="none" fill-rule="evenodd"><path d="M31.587 27.5L27.5 24.193V6A3.5 3.5 0 0 0 24 2.5H4A3.5 3.5 0 0 0 .5 6v18A3.5 3.5 0 0 0 4 27.5h27.587z" stroke="#707C87" fill="#FFF"></path><path d="M.5 9.5h26.99l.012-5.493V4a3.5 3.5 0 0 0-3.5-3.5H4A3.5 3.5 0 0 0 .5 4v5.5zM5 13.5a1.5 1.5 0 0 0 0 3h11a1.5 1.5 0 1 0 0-3H5z" stroke="#02B875" fill="#BCEAD6"></path><path d="M14 19.5a1.5 1.5 0 1 0 0 3h9a1.5 1.5 0 0 0 0-3h-9z" stroke="#707C87" fill="#D7DCE0"></path></g></svg>