<svg xmlns="http://www.w3.org/2000/svg" width="128" height="128" viewBox="0 0 128 128" fill="#FF9E34" class="app-icon app-icon--smallsecondary forum__moderation__card--filter"><path d="M83.6 104c-2.6 1.4-10.2 4.1-19.1 4.1S48 105.4 45.4 104c-2.6-1.4-2.3-4.1-1.2-5.2 1.2-1.1 15.2-13 20.2-13 5.3 0 19 11.9 20.2 13 1.3 1.1 1.5 3.8-1 5.2M55.3 45.4c1.7.8 6.3 1.8 9.2 1.8 2.9 0 7.5-1 9.2-1.8 1.7-.8 3.3 1.4 2.1 2.6-2.8 2.8-8.9 7.6-8.9 15.7 0 7.9 2.2 9 2.2 12.5s-2.8 4.2-4.5 4.2-4.6-.7-4.6-4.2 2.2-4.6 2.2-12.5c0-8.1-6.1-12.9-8.9-15.7-1.3-1.2.3-3.4 2-2.6m25.2 24.9c-3.9-4.7-3.8-8.3 0-12.9C83.3 54 90.1 47 92.6 43.8c2.5-3.2 3.4-5.5 3.4-17.6C96 11.2 69.3 10 64.5 10S33 11.2 33 26.1c0 12.2.9 14.4 3.4 17.6 2.5 3.2 9.3 10.3 12.1 13.6 3.8 4.6 3.9 8.2 0 12.9s-9.8 10.7-12 14C34.3 87.5 33 91 33 93.6v9.1c0 2.2 1.8 6.7 4.5 8.2 2.7 1.5 12.6 6.9 27 6.9s24.4-5.4 27-6.9c2.6-1.6 4.5-6 4.5-8.2v-9.1c0-2.6-1.3-6.1-3.5-9.4-2.2-3.2-8.1-9.2-12-13.9"></path></svg>