<svg width="60" height="60" viewBox="0 0 60 60" xmlns="http://www.w3.org/2000/svg" class="app-icon app-icon--xlarge align-middle" data-identifyElement="363"><g fill="none" fill-rule="evenodd" data-identifyElement="364"><path d="M56 29.693c0-14.691-11.864-26.6-26.5-26.6S3 15.002 3 29.693c0 14.692 11.864 26.6 26.5 26.6S56 44.385 56 29.693" stroke="#FFD012" stroke-width="4.56" fill-opacity=".3" fill="#FFD012" data-identifyElement="365"></path><path d="M37.071 41H21.93" stroke="#FFD012" stroke-width="4.56" stroke-linecap="round" stroke-linejoin="round" data-identifyElement="366"></path><path d="M43.696 23.9c0-2.624-2.117-4.75-4.732-4.75-2.612 0-4.732 2.126-4.732 4.75 0 2.622 2.12 4.75 4.732 4.75 2.615 0 4.732-2.128 4.732-4.75M24.768 23.9c0-2.624-2.118-4.75-4.732-4.75-2.612 0-4.732 2.126-4.732 4.75 0 2.622 2.12 4.75 4.732 4.75 2.614 0 4.732-2.128 4.732-4.75" fill="#FFD012" data-identifyElement="367"></path></g></svg>