<svg width="60" height="60" viewBox="0 0 60 60" xmlns="http://www.w3.org/2000/svg" class="app-icon app-icon--xlarge align-middle" data-identifyElement="373"><g fill="#FF5959" fill-rule="evenodd" data-identifyElement="374"><path d="M56 29.693c0-14.691-11.864-26.6-26.5-26.6S3 15.002 3 29.693c0 14.692 11.864 26.6 26.5 26.6S56 44.385 56 29.693" stroke="#FF5959" stroke-width="4.56" fill-opacity=".3" data-identifyElement="375"></path><path d="M16.327 41.214c6.283-8.392 20.063-8.392 26.346 0a2.286 2.286 0 0 1-.451 3.192 2.266 2.266 0 0 1-3.18-.453c-4.466-5.964-14.618-5.964-19.083 0a2.266 2.266 0 0 1-3.18.453 2.286 2.286 0 0 1-.452-3.192z" fill-rule="nonzero" data-identifyElement="376"></path><path d="M43.696 23.9c0-2.624-2.117-4.75-4.732-4.75-2.612 0-4.732 2.126-4.732 4.75 0 2.622 2.12 4.75 4.732 4.75 2.615 0 4.732-2.128 4.732-4.75M24.768 23.9c0-2.624-2.118-4.75-4.732-4.75-2.612 0-4.732 2.126-4.732 4.75 0 2.622 2.12 4.75 4.732 4.75 2.614 0 4.732-2.128 4.732-4.75" data-identifyElement="377"></path></g></svg>