<svg width="60" height="60" viewBox="0 0 60 60" xmlns="http://www.w3.org/2000/svg" class="app-icon app-icon--xlarge align-middle" data-identifyElement="351"><g fill="none" fill-rule="evenodd" data-identifyElement="352"><path d="M56 29.5C56 14.864 44.136 3 29.5 3S3 14.864 3 29.5 14.864 56 29.5 56 56 44.136 56 29.5" stroke="#6BB437" stroke-width="4.56" fill-opacity=".3" fill="#6BB437" data-identifyElement="353"></path><path d="M40.857 38.964c-7.571 5.679-15.143 5.679-22.714 0" stroke="#6BB437" stroke-width="4.56" stroke-linecap="round" stroke-linejoin="round" data-identifyElement="354"></path><path d="M43.696 23.729a4.732 4.732 0 1 0-9.464 0 4.732 4.732 0 0 0 9.464 0M24.768 23.729a4.732 4.732 0 1 0-9.464 0 4.732 4.732 0 0 0 9.464 0" fill="#6BB437" data-identifyElement="355"></path></g></svg>