<svg xmlns="http://www.w3.org/2000/svg" viewBox="0 0 15 15" class="avatar-svg" fill="#FFF"><path d="M14.3 13.6H14V1.7A1.7 1.7 0 0012.3 0H6.7A1.7 1.7 0 005 1.7V6H2.7A1.7 1.7 0 001 7.7v5.9H.7a.7.7 0 000 1.4h13.6a.7.7 0 100-1.4zm-11.9 0V7.7a.3.3 0 01.3-.3H5v6.2zm6.5 0v-2.2h1.2v2.2zm2.6 0v-2.9a.7.7 0 00-.7-.7H8.2a.7.7 0 00-.7.7v2.9H6.4V1.7a.3.3 0 01.3-.3h5.6a.3.3 0 01.3.3v11.9zm0-6.9a.7.7 0 01-.7.7H8.2a.7.7 0 010-1.4h2.6a.7.7 0 01.7.7zm0-3a.7.7 0 01-.7.7H8.2a.7.7 0 010-1.4h2.6a.7.7 0 01.7.7z" data-name="Layer 2"></path></svg>