<svg xmlns="http://www.w3.org/2000/svg" width="80" height="80" viewBox="0 0 80 80" xmlns:xlink="http://www.w3.org/1999/xlink">
  <defs>
    <path id="a" d="M39.4124049,42.619157 C39.6630424,42.3783807 39.6380419,41.9731347 39.3374035,41.7651915 C39.1016398,41.6019379 38.7706211,41.6499716 38.5649212,41.8472744 L35.0765666,45.1983821 C34.9490327,45.3208983 34.7420669,45.3208983 34.6145329,45.1983821 L33.3100788,43.9452508 C33.1043789,43.747948 32.7733602,43.6996103 32.5375965,43.862864 C32.2369581,44.0708072 32.2119576,44.4763572 32.4625951,44.7171335 L34.6129506,46.7828848 C34.7411175,46.9057051 34.9487162,46.9057051 35.0768831,46.7828848 L39.4124049,42.619157 Z"/>
  </defs>
  <g fill="none" fill-rule="evenodd" transform="translate(5 3)">
    <path stroke="#AFB5BC" stroke-width=".5" d="M44.8611431,75 C38.9214413,73.9620857 20.3333504,69.3327403 26.325746,52.6523433 C26.325746,52.6523433 34.9739405,30.1660788 60.2633698,35.6450825 C60.2633698,35.6450825 68.946433,38.2418261 68.746603,46.1185105 C68.746603,46.1185105 65.6855152,72.1435821 12.9609088,49.2739142 C12.9609088,49.2739142 -28.5191129,19.0458075 43.8429174,0" stroke-linecap="round" stroke-dasharray="1.138 1.138"/>
    <path fill="#183247" fill-rule="nonzero" d="M14.6412037,54.1666667 L14.6412037,33.0729167 L41.6087963,33.0729167 L41.6087963,54.1666667 L14.6412037,54.1666667 Z M40.5671296,53.125 L40.5671296,34.1145833 L15.6828704,34.1145833 L15.6828704,53.125 L40.5671296,53.125 Z M35.5324074,23.9583333 L35.0115741,24.4791667 L35.0115741,23.9583333 L35.5324074,23.9583333 Z M35.0115741,20.3125 L39.7569444,20.3125 L39.7569444,23.9583333 L41.087963,23.9583333 C43.4108283,23.9583333 45.3125,25.8302914 45.3125,28.125 L45.3125,53.6458333 C45.3125,55.9405419 43.4108283,57.8125 41.087963,57.8125 L15.162037,57.8125 C12.8266425,57.8125 10.9375,55.9464407 10.9375001,53.6454554 L10.9560185,28.125 C10.9560185,25.8216728 12.8293529,23.9583333 15.162037,23.9583333 L16.4930556,23.9583333 L16.4930556,20.3125 L21.2384259,20.3125 L21.2384259,23.9583333 L35.0115741,23.9583333 L35.0115741,20.3125 Z M36.0532407,25 L20.1967593,25 L20.1967593,21.3541667 L17.5347222,21.3541667 L17.5347222,25 L15.162037,25 C13.4034057,25 11.9976852,26.3982205 11.997685,28.1253779 L11.9791667,53.6458333 C11.9791667,55.368258 13.3990919,56.7708333 15.162037,56.7708333 L41.087963,56.7708333 C42.8391717,56.7708333 44.2708333,55.3615414 44.2708333,53.6458333 L44.2708333,28.125 C44.2708333,26.4092919 42.8391717,25 41.087963,25 L38.7152778,25 L38.7152778,21.3541667 L36.0532407,21.3541667 L36.0532407,25 Z M27.6041667,50.5208333 L27.6041667,40.3645833 L37.9050926,40.3645833 L37.9050926,50.5208333 L27.6041667,50.5208333 Z M36.8634259,49.4791667 L36.8634259,41.40625 L28.6458333,41.40625 L28.6458333,49.4791667 L36.8634259,49.4791667 Z"/>
    <use fill="#404543" xlink:href="#a"/>
    <path stroke="#FFFFFF" stroke-width=".8" d="M34.8455498,44.865641 L33.58719,43.6567904 C33.2429839,43.3266355 32.7019249,43.2625398 32.3098818,43.5340084 C31.8050825,43.8831639 31.7492512,44.5865244 32.185484,45.0055939 L34.3358395,47.0713452 C34.6190805,47.3427709 35.0707532,47.3427709 35.3536378,47.0716872 L39.689474,42.9076578 L39.689516,42.9076174 C40.12575,42.4885468 40.0699159,41.7854903 39.5649462,41.4362169 C39.1730856,41.1648746 38.6319989,41.2286754 38.288032,41.5586009 L34.8455498,44.865641 Z"/>
    <path fill="#DBE2E8" d="M54.6926253 14.740819C54.6926253 15.4854465 54.0947712 16.08867 53.3576042 16.08867 52.6200646 16.08867 52.0222106 15.4854465 52.0222106 14.740819 52.0222106 13.9961915 52.6200646 13.392968 53.3576042 13.392968 54.0947712 13.392968 54.6926253 13.9961915 54.6926253 14.740819M4.1397053 53.6474272C4.1397053 54.5112703 3.44612012 55.211521 2.59049974 55.211521 1.73525185 55.211521 1.04166667 54.5112703 1.04166667 53.6474272 1.04166667 52.783584 1.73525185 52.0833333 2.59049974 52.0833333 3.44612012 52.0833333 4.1397053 52.783584 4.1397053 53.6474272"/>
    <polygon fill="#DBE2E8" points="2.967 11.355 1.89 11.355 1.89 10.268 1.173 10.268 1.173 11.355 .097 11.355 .097 12.079 1.173 12.079 1.173 13.166 1.89 13.166 1.89 12.079 2.967 12.079"/>
    <polygon fill="#DBE2E8" points="56.85 40.994 55.453 40.994 55.453 39.583 54.522 39.583 54.522 40.994 53.125 40.994 53.125 41.934 54.522 41.934 54.522 43.344 55.453 43.344 55.453 41.934 56.85 41.934"/>
    <polygon fill="#DBE2E8" points="22.662 63.587 21.586 63.587 21.586 62.5 20.868 62.5 20.868 63.587 19.792 63.587 19.792 64.311 20.868 64.311 20.868 65.398 21.586 65.398 21.586 64.311 22.662 64.311"/>
  </g>
</svg>
