<svg xmlns="http://www.w3.org/2000/svg" width="16" height="16" fill-rule="evenodd" viewBox="0 0 16 16" class="app-icon app-icon--small app-icon--topalign" data-test-id="email-mailbox-default-icon"><path d="M8 16c-4.416 0-8-3.584-8-8s3.584-8 8-8h6a2 2 0 0 1 2 2v6c0 4.416-3.584 8-8 8z" fill="#25C16F"></path><path d="M8 3.552a3.66 3.66 0 0 0-3.68 3.68V9.68c0 .672.544 1.232 1.232 1.232h1.024V8.048H5.152v-.816a2.86 2.86 0 1 1 5.728 0v.816H9.456v2.864h.96v.064c0 .608-.496 1.104-1.104 1.104H8.208c-.096 0-.176.08-.176.176s.08.176.176.176H9.28a1.47 1.47 0 0 0 1.472-1.472v-.08c.528-.144.912-.624.912-1.184V7.232A3.647 3.647 0 0 0 8 3.552z" fill="#fff"></path></svg>