<svg xmlns="http://www.w3.org/2000/svg" viewBox="0 0 36 36" class="modal-icons"><g fill="none" fill-rule="evenodd"><path stroke="#6F7C87" stroke-width="1.5" d="M17.944 30.703H7.014a.818.818 0 01-.817-.817V9.703c0-.451.366-.817.817-.817h10.93v21.817zm11.042.012h-10.93V3.48c0-.59.605-.986 1.145-.748l10.113 4.441c.298.13.49.424.49.748v21.976a.819.819 0 01-.818.818z"></path><path fill="#000" stroke="#183247" stroke-width=".5" d="M9.439 13.58h1.303v-1.303H9.439zm0 4.578h1.303v-1.304H9.439zm0 4.576h1.303v-1.303H9.439zm0 4.577h1.303v-1.303H9.439zm3.95-13.731h1.303v-1.303h-1.303zm0 4.578h1.303v-1.304h-1.303zm0 4.576h1.303v-1.303h-1.303zm0 4.577h1.303v-1.303h-1.303z"></path><path fill="#000" stroke="#183247" stroke-width="1.5" d="M20.756 12.75h6.176"></path><path stroke="#000" stroke-width="1.5" d="M20.793 17.449h6.177m-6.301 4.493h6.176m-6.137 4.808h6.177"></path><path stroke="#6F7C87" stroke-linecap="round" stroke-linejoin="round" stroke-width="1.5" d="M3.882 30.8h28.236"></path></g></svg>