<svg xmlns="http://www.w3.org/2000/svg" viewBox="0 0 36 36" class="modal-icons"><g fill="none" fill-rule="evenodd"><circle cx="13.75" cy="17.75" r="3.75" fill="#DADFE3"></circle><g stroke-linecap="round" stroke-width="1.5"><path stroke="#6F7C87" d="M29.39 31.39H5.75a2 2 0 01-2-2V5.75a2 2 0 012-2h23.64a2 2 0 012 2v23.64a2 2 0 01-2 2z"></path><path stroke="#000" stroke-linejoin="round" d="M16.838 16.788a3.448 3.448 0 11-6.897 0 3.448 3.448 0 016.897 0zm-8.375 9.327h0a3.135 3.135 0 013.135-3.135h3.583a3.135 3.135 0 013.136 3.135h0m9.899-14.26a4.718 4.718 0 11-9.435 0 4.718 4.718 0 019.435 0zm-4.761-1.817v3.436m-1.718-1.718h3.436"></path></g></g></svg>