<svg xmlns="http://www.w3.org/2000/svg" width="32" height="32" viewBox="0 0 32 32" class="app-icon app-icon--normal"><path d="M23.619 16.244c-2.469 0-4.47-1.99-4.47-4.445s2.001-4.445 4.47-4.445 4.47 1.99 4.47 4.445-2.001 4.445-4.47 4.445zm0-2.425c1.122 0 2.032-.905 2.032-2.02s-.91-2.02-2.032-2.02c-1.122 0-2.032.905-2.032 2.02s.91 2.02 2.032 2.02zm-13.037 3.435c-3.31 0-5.994-2.669-5.994-5.96s2.683-5.96 5.994-5.96c3.31 0 5.994 2.669 5.994 5.96s-2.683 5.96-5.994 5.96zm0-2.425c1.964 0 3.556-1.583 3.556-3.536s-1.592-3.536-3.556-3.536-3.556 1.583-3.556 3.536 1.592 3.536 3.556 3.536zM3.505 25.988c0 .669-.546 1.212-1.219 1.212s-1.219-.543-1.219-1.212c0-4.017 3.275-7.274 7.314-7.274h4.064c4.04 0 7.314 3.256 7.314 7.274 0 .669-.546 1.212-1.219 1.212s-1.219-.543-1.219-1.212c0-2.678-2.183-4.849-4.876-4.849H8.381c-2.693 0-4.876 2.171-4.876 4.849zm16.051-5.905c-.673 0-1.219-.543-1.219-1.212s.546-1.212 1.219-1.212h6.349c2.795 0 5.029 2.369 5.029 5.253 0 .669-.546 1.212-1.219 1.212s-1.219-.543-1.219-1.212c0-1.579-1.178-2.829-2.59-2.829h-6.349z"></path></svg>