<svg xmlns="http://www.w3.org/2000/svg" width="41" height="48" viewBox="0 0 41 48" class="app-icon app-icon--normal"><g fill="none" fill-rule="evenodd"><path fill="#02B875" d="M24.506 34.318c1.427.546 2.855 1.292 4.285 2.237 2.242 1.482 3.868 3.046 4.877 4.69.248.404-.166.838-.924.97a2.629 2.629 0 01-.449.038H9.46c-.798 0-1.444-.344-1.444-.77 0-.111.045-.222.134-.323 1.826-2.094 3.477-3.63 4.952-4.605 1.192-.788 2.775-1.545 4.748-2.27 2.01-.74 4.674-.727 6.657.033zm-1.389-13.575a29.045 29.045 0 006.52-5.981c1.735-2.155 2.833-4.19 3.293-6.105.276-1.145-.448-2.293-1.615-2.563a2.212 2.212 0 00-.499-.057h-20.25c-1.2 0-2.172.954-2.172 2.13 0 .238.04.474.12.699.863 2.443 1.893 4.409 3.09 5.896 1.3 1.616 3.434 3.557 6.4 5.821a4.412 4.412 0 005.113.16z"></path><path fill="#183247" d="M36.086.857v4.66a17.45 17.45 0 01-6.049 13.21l-4.734 4.085a2.834 2.834 0 00-.02 4.274l4.748 4.174a17.824 17.824 0 016.055 13.386v.617h1.89v-.617c0-5.668-2.44-11.062-6.698-14.805l-4.747-4.174a.945.945 0 01.007-1.424l4.734-4.086a19.338 19.338 0 006.703-14.64V.857h-1.889z"></path><path fill="#000" d="M36.086.857v4.66a17.45 17.45 0 01-6.049 13.21l-4.734 4.085a2.834 2.834 0 00-.02 4.274l4.748 4.174a17.824 17.824 0 016.055 13.386v.617h1.89v-.617c0-5.668-2.44-11.062-6.698-14.805l-4.747-4.174a.945.945 0 01.007-1.424l4.734-4.086a19.338 19.338 0 006.703-14.64V.857h-1.889z"></path><path fill="#183247" d="M5.386.857v4.66a17.45 17.45 0 006.049 13.21l4.734 4.085a2.834 2.834 0 01.02 4.274L11.44 31.26a17.824 17.824 0 00-6.055 13.386v.617H3.497v-.617c0-5.668 2.44-11.062 6.697-14.805l4.747-4.174a.945.945 0 00-.006-1.424L10.2 20.157a19.338 19.338 0 01-6.704-14.64V.857h1.89z"></path><path fill="#000" d="M5.386.857v4.66a17.45 17.45 0 006.049 13.21l4.734 4.085a2.834 2.834 0 01.02 4.274L11.44 31.26a17.824 17.824 0 00-6.055 13.386v.617H3.497v-.617c0-5.668 2.44-11.062 6.697-14.805l4.747-4.174a.945.945 0 00-.006-1.424L10.2 20.157a19.338 19.338 0 01-6.704-14.64V.857h1.89z"></path><g transform="translate(.19 .385)"><rect width="40.618" height="3.778" fill="#183247" rx="1.889"></rect><rect width="40.618" height="3.778" fill="#000" rx="1.889"></rect></g><g transform="translate(.19 43.385)"><rect width="40.618" height="3.778" y=".452" fill="#183247" rx="1.889"></rect><rect width="40.618" height="3.778" y=".452" fill="#000" rx="1.889"></rect></g></g></svg>