<svg xmlns="http://www.w3.org/2000/svg" width="36" height="36" viewBox="0 0 36 36" class="app-icon app-icon--normal"><g fill="none" fill-rule="evenodd"><path fill="#DADFE3" d="M27.582 29.627H11.118a1.442 1.442 0 01-1.442-1.442v-9.657c0-.797.645-1.443 1.442-1.443h16.464c.797 0 1.442.646 1.442 1.443v9.657c0 .796-.645 1.442-1.442 1.442z"></path><path stroke="#6F7C87" stroke-linecap="round" stroke-width="1.5" d="M30.39 32.445H6.75a2 2 0 01-2-2V9.606a2 2 0 012-2h23.64a2 2 0 012 2v20.84a2 2 0 01-2 2zM10.056 7.369h3.049V3.75h-3.049zm13.979 0h3.049V3.75h-3.049z"></path><path stroke="#183247" stroke-linecap="round" stroke-width="1.5" d="M26.647 28.513H10.492a1.367 1.367 0 01-1.367-1.367v-9.343c0-.755.612-1.367 1.367-1.367h16.155c.755 0 1.367.612 1.367 1.367v9.343c0 .755-.612 1.367-1.367 1.367z"></path><path stroke="#6F7C87" stroke-linecap="round" stroke-width="1.5" d="M23.453 25.752h-4.968a.545.545 0 01-.545-.545v-4.896c0-.3.244-.545.545-.545h4.968c.301 0 .545.244.545.545v4.896a.545.545 0 01-.545.545z"></path><path stroke="#6F7C87" stroke-linecap="round" stroke-width="1.5" d="M20.323 22.199l1.13 1.13 4.423-4.424"></path></g></svg>