<svg xmlns="http://www.w3.org/2000/svg" width="30" height="30" fill="none" fill-rule="evenodd" class="modal-icons item-icon" data-test-id="arcade"><g stroke="#6f7c87" stroke-linejoin="round"><path d="M22.394 11.325A7.482 7.482 0 0 1 15 18.745a7.482 7.482 0 0 1-7.394-7.42V2.313c0-.483.392-.875.875-.875H21.52c.483 0 .875.392.875.875v9.013z"></path><path d="M13.766 18.745s-.105 4.12-1.846 5.924-3.045 2.66-3.045 3.894H15m1.234-9.818s.105 4.12 1.846 5.924 3.1 2.625 3.1 3.894H15M22.394 4.42h5.294c.483 0 .875.392.875.875v2.94A6.79 6.79 0 0 1 21.781 15M7.606 4.42h-5.25a.875.875 0 0 0-.875.875v2.94A6.79 6.79 0 0 0 8.219 15" stroke-linecap="round"></path></g><g stroke="#448ee1" fill="#c6ddf6" fill-rule="nonzero" stroke-linejoin="round"><path d="M15.193 6.25l.97 1.97 2.153.306c.082.017.15.078.172.158s.001.168-.06.227l-1.55 1.54.367 2.153a.219.219 0 0 1-.315.237L15 11.824l-1.934 1.015c-.075.038-.164.03-.232-.02s-.1-.135-.083-.217l.367-2.152-1.55-1.514c-.06-.06-.082-.146-.06-.227s.1-.14.172-.158l2.153-.306.97-1.995a.21.21 0 0 1 .385 0z"></path><rect x="7.125" y="25.938" width="15.75" height="2.625" rx="1"></rect></g></svg>