<svg xmlns="http://www.w3.org/2000/svg" width="30" height="30" class="modal-icons item-icon" data-test-id="scenario-automations"><style>.B{stroke-linejoin:round}.C{stroke-linecap:round}.D{fill-rule:nonzero}</style><g fill="none" fill-rule="evenodd" class="B"><g stroke="#6f7c87"><circle cx="3.188" cy="26.813" r="1.75"></circle><path d="M1.438 1.438h3.5v3.5h-3.5zm23.63 25.374l1.75-1.75 1.75 1.75-1.75 1.75zm1.746-25.374l-1.75 3.5h3.5z"></path><path d="M7.563 3.188h15.75M3.188 7.563v14.875m4.375 4.375h14.875M21.24 28l1.2-1.2-1.2-1.2" class="C"></path></g><g stroke="#448ee1"><path fill="#c6ddf6" d="M22.28 10.625l-3.5-1.75v3.5z" class="D"></path><path d="M14.72 10.625h4.06" class="C"></path><g fill="#c6ddf6" class="D"><circle cx="10.345" cy="10.625" r="2.625"></circle><circle cx="10.345" cy="19.375" r="2.625"></circle><path d="M22.28 19.375l-3.5-1.75v3.5z"></path></g><path d="M14.72 19.375h4.06" class="C"></path></g></g></svg>