<svg xmlns="http://www.w3.org/2000/svg" viewBox="0 0 29 28" class="modal-icons item-icon" data-test-id="automations"><defs><style>.a,.b{fill:#dadfe3}.b,.d{stroke:#6f7c87}.b,.d,.e,.f{stroke-linecap:round;stroke-linejoin:round}.c{fill:#6f7c87}.d,.e{fill:none}.e,.f{stroke:#448ee1}.f{fill:#c6ddf6}</style></defs><rect class="a" x="2.26" y="6.73" width="3.64" height=".91" rx=".45"></rect><rect class="a" x="7.5" y="6.73" width="3.64" height=".91" rx=".45"></rect><rect class="a" x="12.73" y="6.73" width="3.64" height=".91" rx=".45"></rect><rect class="a" x="17.97" y="6.73" width="3.64" height=".91" rx=".45"></rect><path class="b" d="M2.9.5H21a2.4 2.4 0 0 1 2.4 2.4v1.54H.5V2.9A2.4 2.4 0 0 1 2.9.5z"></path><ellipse class="c" cx="3.18" cy="2.47" rx=".42" ry=".43"></ellipse><ellipse class="c" cx="4.86" cy="2.47" rx=".42" ry=".43"></ellipse><ellipse class="c" cx="6.54" cy="2.47" rx=".42" ry=".43"></ellipse><path class="d" d="M14.5 16.4a7.36 7.36 0 0 1 8.87-3.53V4.44H.5v14.92a2.39 2.39 0 0 0 2.4 2.4h10.83a7.07 7.07 0 0 1 .77-5.36z"></path><ellipse class="e" cx="21" cy="19.99" rx="7.5" ry="7.51"></ellipse><path class="d" d="M2.76 12.46h9.33M2.76 16.46h9.33"></path><circle class="b" cx="5.09" cy="12.46" r=".93"></circle><circle class="b" cx="8.88" cy="16.46" r=".93"></circle><path class="f" d="M24.06 20.39a2.6 2.6 0 0 0 0-.4 2.69 2.69 0 0 0 0-.4l.87-.68a.22.22 0 0 0 .05-.27l-.83-1.42a.2.2 0 0 0-.25-.09l-1 .41a3.4 3.4 0 0 0-.69-.41L22 16.05a.2.2 0 0 0-.2-.17h-1.62a.2.2 0 0 0-.2.17l-.16 1.09a3.22 3.22 0 0 0-.69.41l-1-.42a.21.21 0 0 0-.25.09L17 18.65a.2.2 0 0 0 0 .26l.87.68a2.69 2.69 0 0 0 0 .4 2.83 2.83 0 0 0 0 .41l-.87.68a.22.22 0 0 0 0 .27l.83 1.42a.21.21 0 0 0 .25.09l1-.41a3 3 0 0 0 .69.4l.23 1.09a.2.2 0 0 0 .2.17h1.65a.2.2 0 0 0 .2-.17l.16-1.09a3.22 3.22 0 0 0 .69-.41l1 .41a.2.2 0 0 0 .25-.08l.85-1.43a.2.2 0 0 0-.05-.26zm-3.06.55a.95.95 0 1 1 1-.94.94.94 0 0 1-1 .94z"></path></svg>