<svg width="28" height="28" viewBox="0 0 28 28" xmlns="http://www.w3.org/2000/svg" class="modal-icons item-icon" data-test-id="proactive-support"><g fill-rule="nonzero" fill="none"><g fill="#6F7C87"><path d="M21 25a6 6 0 1 0 0-12v12zm0 1a1 1 0 0 1-1-1V13a1 1 0 0 1 1-1 7 7 0 0 1 0 14zM7 25a6 6 0 1 1 0-12v12zm0 1a1 1 0 0 0 1-1V13a1 1 0 0 0-1-1 7 7 0 1 0 0 14z"></path></g><path d="M5.5 25h-1V11.398C4.5 6.208 8.753 2 14 2s9.5 4.208 9.5 9.398V25h-1V11.398c0-4.644-3.806-8.409-8.5-8.409S5.5 6.754 5.5 11.4V25z" fill="#6F7C87"></path><path d="M10.2 18.175a.5.5 0 0 1-.465-.685l3.448-8.675a.5.5 0 0 1 .465-.315H17.7a.5.5 0 0 1 .437.744l-3.081 5.521h2.615a.5.5 0 0 1 .428.759l-6.333 10.484c-.302.499-1.068.166-.91-.395l2.105-7.438H10.2z" fill="#448EE1"></path><path d="M16.848 9.5h-2.861l-3.05 7.675h2.686a.5.5 0 0 1 .48.636l-1.273 4.501 3.955-6.547h-2.581a.5.5 0 0 1-.437-.744L16.848 9.5z" fill="#C6DDF6"></path></g></svg>