<svg width="24" height="27" viewBox="0 0 24 27" xmlns="http://www.w3.org/2000/svg" class="modal-icons item-icon" data-test-id="canned-forms"><g transform="translate(1)" fill="none" fill-rule="evenodd"><rect fill="#6F7C86" x="3.833" y="5.778" width="13.417" height="1" rx=".5"></rect><rect fill="#6F7C86" x="3.833" y="9.63" width="13.417" height="1" rx=".5"></rect><rect fill="#6F7C86" x="3.833" y="13.481" width="7.667" height="1" rx=".5"></rect><path d="M10.783 26H1.5A1.5 1.5 0 0 1 0 24.5V1.977a1.5 1.5 0 0 1 1.5-1.5h18.565a1.5 1.5 0 0 1 1.5 1.5v12.89" stroke="#6F7C86" stroke-linecap="square"></path><path d="M17.534 16.53l1.333 2.71 2.963.432a.312.312 0 0 1 .163.528l-2.133 2.091.504 2.977a.298.298 0 0 1-.11.303.295.295 0 0 1-.32.025l-2.666-1.422-2.667 1.377a.295.295 0 0 1-.32-.025.298.298 0 0 1-.11-.302l.504-2.977L12.55 20.2a.314.314 0 0 1 .162-.528l2.963-.432 1.333-2.71a.296.296 0 0 1 .526 0z" stroke="#448EE1" stroke-width=".75" fill="#C6DEF6" fill-rule="nonzero" stroke-linecap="round" stroke-linejoin="round"></path></g></svg>