<svg xmlns="http://www.w3.org/2000/svg" xmlns:xlink="http://www.w3.org/1999/xlink" width="30" height="30" class="modal-icons item-icon" data-test-id="advanced-ticketing"><path d="M24.21 9.97a9.75 9.75 0 0 0-1.176-.26c.28-.297.605-.56.972-.78V6.668c0-.315-.31-.59-.72-.59H2.314c-.407 0-.72.276-.72.59V8.93c1.264.755 2.052 2.034 2.052 3.442s-.79 2.686-2.052 3.442v2.262c0 .315.31.59.72.59h9.504l-.012.487.012.487H2.314c-.933 0-1.71-.69-1.71-1.565v-2.84l.266-.137c1.102-.566 1.786-1.598 1.786-2.727S1.972 10.21.87 9.645L.605 9.51V6.67c0-.876.776-1.565 1.71-1.565h20.973c.933 0 1.71.69 1.71 1.565v2.84l-.266.137a3.67 3.67 0 0 0-.52.324zm-4.977-.116a9.72 9.72 0 0 0-1.158.351H7.295v4.335h5.71a9.46 9.46 0 0 0-.474.973h-5.3c-.528 0-.926-.45-.926-.973v-4.335c0-.524.398-.973.926-.973H18.37c.404 0 .733.263.864.622z" fill="#6f7c87"></path><path d="M21.5 26.717c-4.25 0-7.695-3.386-7.695-7.563S17.25 11.6 21.5 11.6s7.695 3.386 7.695 7.563-3.445 7.563-7.695 7.563z" fill="#448ee1"></path><path d="M21.5 25.717c3.7 0 6.695-2.942 6.695-6.563S25.2 12.6 21.5 12.6s-6.695 2.942-6.695 6.563 2.994 6.563 6.695 6.563z" fill="#c6ddf6"></path><g fill="#448ee1"><use xlink:href="#a"></use><use xlink:href="#a" y="3.878"></use></g><defs><path id="a" d="M21.653 16.392l-2.327 2.06a.5.5 0 0 1-.699-.036.48.48 0 0 1 .037-.687l2.658-2.353a.5.5 0 0 1 .663 0l2.658 2.353a.48.48 0 0 1 .037.687.5.5 0 0 1-.699.036l-2.327-2.06z"></path></defs></svg>