<svg xmlns="http://www.w3.org/2000/svg" viewBox="0 0 30 30" class="modal-icons item-icon" data-test-id="freddy-skills"><defs><style>.a,.e,.i{fill:#fff}.a{opacity:.01}.b{fill:#c6ddf6}.c,.j{fill:none}.c,.e,.f,.g{stroke:#6f7c87}.c,.e,.f,.g,.j{stroke-linecap:round;stroke-linejoin:round}.d,.g{fill:#dadfe3}.f,.h{fill:#6f7c87}.j{stroke:#448ee1}</style></defs><path class="a" d="M0 0h30v30H0z"></path><path class="b" d="M6.92 22.37a3.23 3.23 0 0 0-.15 2.69s8.73 5.53 16.64.23c0 0 .33-2.16-.38-2.78-.03 0-6.8 5.38-16.11-.14z"></path><path class="c" d="M10.93 3.28a9.51 9.51 0 0 1 8-.06"></path><path class="d" d="M12.62 4.85a4.48 4.48 0 0 1-1.34-1.73c-3.4 1.42-5.46 8.93-5.46 8.93-.52 2.5 3.87 7.32 7.5 1.52s.07-8.27-.7-8.72z"></path><path class="e" d="M13.54 15.94l-4 2.28a1.05 1.05 0 0 0-.4 1.14c.42 1.64 1.8 4.91 5.86 3.07v-5zm2.81 0l4.13 2.28a1.05 1.05 0 0 1 .4 1.14c-.44 1.64-1.82 4.91-5.88 3.07v-5z"></path><path class="f" d="M15.82 19.32L17 17.26a1 1 0 0 0-.83-1.44H13.8a1 1 0 0 0-.8 1.44l1.19 2.06a1 1 0 0 0 1.63 0z"></path><path class="g" d="M18.72 3.12l.73-.38a1.58 1.58 0 0 1 1.42 0l5.56 2.66a1.55 1.55 0 0 1 .86 1.07l1.71 7.2a1.61 1.61 0 0 1-.36 1.33l-.38.46a1.6 1.6 0 0 1-2.18.26l-.76-.57a1.58 1.58 0 0 1-.6-.95c-.42-1.99-2.08-8.77-6-11.08z"></path><circle class="h" cx="19.19" cy="12.45" r="1.14"></circle><circle class="i" cx="18.65" cy="11.79" r=".26"></circle><circle class="h" cx="10.16" cy="12.45" r="1.14"></circle><circle class="i" cx="9.62" cy="11.79" r=".26"></circle><path class="c" d="M8.83 8.58a2.41 2.41 0 0 1 2.69-1.5m9.42 1.5a2.41 2.41 0 0 0-2.69-1.5"></path><path class="g" d="M11.28 3.12l-.73-.38a1.58 1.58 0 0 0-1.42 0L3.57 5.38a1.55 1.55 0 0 0-.86 1.07L1 13.67A1.61 1.61 0 0 0 1.36 15l.38.46a1.6 1.6 0 0 0 2.18.26l.76-.57a1.58 1.58 0 0 0 .6-.95c.42-1.99 2.08-8.77 6-11.08z"></path><path class="c" d="M15.91 10.72l1 3.6a.44.44 0 0 0 .43.33H23a.45.45 0 0 0 .45-.4l.43-3.59a.45.45 0 0 0-.45-.5h-7a.45.45 0 0 0-.52.56zm7.47-.56h.59m-9.86.56l-1 3.6a.46.46 0 0 1-.43.33H7.07a.44.44 0 0 1-.44-.4l-.43-3.59a.44.44 0 0 1 .44-.5h7a.45.45 0 0 1 .47.56zm-7.47-.56h-.59m7.95.13a5 5 0 0 1 1.95 0"></path><path class="e" d="M23.05 18.85A3.62 3.62 0 0 1 21.47 21a18.6 18.6 0 0 1-2.28 1.25m5.26-9.17l-1.42 5.93m-16.1-.16A3.62 3.62 0 0 0 8.51 21a17.89 17.89 0 0 0 2.28 1.25m-5.24-8.94l1.38 5.54m0 .09v3.35m16.1.22l-.02-3.37"></path><path class="j" d="M6.93 22.29s8 5.61 16.1.22m.34 2.78c-8.06 5.39-16.65-.23-16.65-.23M23 22.51s.8.72.34 2.78M6.92 22.37s-.66.63-.2 2.69"></path><path class="e" d="M17.39 23a3.59 3.59 0 0 1-2.4.91 3.63 3.63 0 0 1-2.37-.91"></path></svg>