<svg xmlns="http://www.w3.org/2000/svg" width="28" height="28" fill="none" fill-rule="evenodd" class="modal-icons item-icon" data-test-id="ticket-templates"><g stroke="#6f7c87" stroke-linejoin="round" stroke-width=".875"><path d="M1.444 27.563h23.11a3.01 3.01 0 0 0 3.01-3.01V1.566" stroke-linecap="round"></path><rect x=".438" y=".438" width="24.115" height="24.106" rx=".875"></rect></g><path d="M19.653 9.494l-.718-.744-.254.07a2.02 2.02 0 0 1-2.537-2.538l.07-.254-.726-.726a1.27 1.27 0 0 0-1.75 0l-8.41 8.39a1.27 1.27 0 0 0 0 1.75l.726.726.254-.07a2.02 2.02 0 0 1 2.537 2.537l-.07.254.726.726a1.27 1.27 0 0 0 1.75 0l8.374-8.374a1.27 1.27 0 0 0 .026-1.75zm-3.797 2.354l-4.016 4.016c-.333.3-.84.3-1.172 0L9.144 14.34a.877.877 0 0 1 0-1.173l3.98-4.025c.333-.3.84-.3 1.172 0l1.523 1.522c.31.324.326.83.035 1.172v.01z" stroke="#448ee1" fill-opacity=".3" fill="#448ee1" fill-rule="nonzero" stroke-linejoin="round" stroke-width=".875"></path></svg>