<svg width="28" height="28" viewBox="0 0 28 28" xmlns="http://www.w3.org/2000/svg" class="modal-icons item-icon" data-test-id="email-notifications"><g stroke-width=".875" fill="none" fill-rule="evenodd" stroke-linecap="round" stroke-linejoin="round"><path d="M17.194 18.996h9.31c.584 0 1.058-.474 1.058-1.058V1.495c0-.584-.474-1.058-1.058-1.058H1.496C.912.438.438.911.438 1.496v16.442c0 .584.474 1.058 1.058 1.058h9.118" stroke="#6F7C87"></path><path d="M26.915 1.032l-12.197 11.13a1.059 1.059 0 0 1-1.427 0L1.085 1.032M26.915 18.401l-9.52-8.68M10.614 9.721l-9.529 8.68" stroke="#6F7C87"></path><circle stroke="#448EE1" fill-opacity=".3" fill="#448EE1" fill-rule="nonzero" cx="14" cy="16.109" r="1"></circle><path d="M15.304 25.961c.008.088.008.175 0 .263a1.33 1.33 0 0 1-2.625 0 1.453 1.453 0 0 1 0-.263" stroke="#448EE1" fill-opacity=".3" fill="#448EE1" fill-rule="nonzero"></path><path d="M12.696 25.961h6.362C17.5 24.5 17.5 23.625 17.5 20.396a3.378 3.378 0 0 0-.971-2.459 3.5 3.5 0 0 0-4.979 0 3.377 3.377 0 0 0-1.05 2.46c0 3.228 0 4.103-1.557 5.564h3.753z" stroke="#448EE1" fill-opacity=".3" fill="#448EE1" fill-rule="nonzero"></path></g></svg>