<svg id="Layer_1" data-name="Layer 1" xmlns="http://www.w3.org/2000/svg" viewBox="0 0 25 30" class="modal-icons item-icon" data-test-id="omni-channel-assignment"><defs><style>.cls-1{fill:#dadfe3}.cls-1,.cls-3{fill-rule:evenodd}.cls-2,.cls-4{fill:none;stroke-linecap:round;stroke-linejoin:round}.cls-2{stroke:#6f7c87;stroke-width:.88px}.cls-3{fill:#c7def5}.cls-4{stroke:#4890de;stroke-width:.77px}</style></defs><g id="v2"><g id="admin-omni-icon"><g id="omnichannel-assignment"><g id="Group-3"><path id="Fill-1" class="cls-1" d="M20.16 19.49l-15.32-9"></path><path id="Stroke-2" class="cls-2" d="M20.16 19.49l-15.32-9"></path></g><g id="Group-6"><path id="Fill-4" class="cls-1" d="M20.16 10.51l-15.32 9"></path><path id="Stroke-5" class="cls-2" d="M20.16 10.51l-15.32 9"></path></g><path id="Stroke-8" class="cls-2" d="M12.5 24V6"></path><g id="Group-37"><path id="Fill-9" class="cls-1" d="M14.76 3.73a2.26 2.26 0 1 0-4.52 0 2.26 2.26 0 1 0 4.52 0"></path><path id="Stroke-11" class="cls-2" d="M14.76 3.73a2.26 2.26 0 1 0-4.52 0 2.26 2.26 0 1 0 4.52 0z"></path><path id="Fill-13" class="cls-1" d="M14.76 26.27a2.26 2.26 0 1 0-2.26 2.29 2.27 2.27 0 0 0 2.26-2.29"></path><path id="Stroke-15" class="cls-2" d="M14.76 26.27a2.26 2.26 0 1 0-2.26 2.29 2.27 2.27 0 0 0 2.26-2.29z"></path><path id="Fill-17" class="cls-1" d="M4 7.38a2.23 2.23 0 0 0-3.08.84 2.3 2.3 0 0 0 .82 3.13 2.24 2.24 0 0 0 3.09-.84A2.31 2.31 0 0 0 4 7.38"></path><path id="Stroke-19" class="cls-2" d="M4 7.38a2.23 2.23 0 0 0-3.08.84 2.3 2.3 0 0 0 .82 3.13 2.24 2.24 0 0 0 3.09-.84A2.31 2.31 0 0 0 4 7.38z"></path><path id="Fill-21" class="cls-1" d="M23.25 18.65a2.24 2.24 0 0 0-3.09.84 2.31 2.31 0 0 0 .84 3.13 2.23 2.23 0 0 0 3.08-.84 2.3 2.3 0 0 0-.82-3.13"></path><path id="Stroke-23" class="cls-2" d="M23.25 18.65a2.24 2.24 0 0 0-3.09.84 2.31 2.31 0 0 0 .84 3.13 2.23 2.23 0 0 0 3.08-.84 2.3 2.3 0 0 0-.83-3.13z"></path><path id="Fill-25" class="cls-1" d="M1.75 18.65a2.3 2.3 0 0 0-.82 3.13 2.23 2.23 0 0 0 3.07.84 2.31 2.31 0 0 0 .83-3.13 2.24 2.24 0 0 0-3.09-.84"></path><path id="Stroke-27" class="cls-2" d="M1.75 18.65a2.3 2.3 0 0 0-.82 3.13 2.23 2.23 0 0 0 3.07.84 2.31 2.31 0 0 0 .83-3.13 2.24 2.24 0 0 0-3.08-.84z"></path><path id="Fill-29" class="cls-1" d="M21 7.38a2.31 2.31 0 0 0-.83 3.13 2.24 2.24 0 0 0 3.09.84 2.3 2.3 0 0 0 .82-3.13A2.23 2.23 0 0 0 21 7.38"></path><path id="Stroke-31" class="cls-2" d="M21 7.38a2.31 2.31 0 0 0-.83 3.13 2.24 2.24 0 0 0 3.09.84 2.3 2.3 0 0 0 .82-3.13A2.23 2.23 0 0 0 21 7.38z"></path><path id="Fill-33" class="cls-3" d="M17.77 15a5.27 5.27 0 1 0-5.27 5.35A5.31 5.31 0 0 0 17.77 15"></path><path id="Stroke-35" class="cls-4" d="M17.77 15a5.27 5.27 0 1 0-5.27 5.35A5.31 5.31 0 0 0 17.77 15z"></path></g></g></g></g></svg>