<svg xmlns="http://www.w3.org/2000/svg" xmlns:xlink="http://www.w3.org/1999/xlink" width="29" height="29" viewBox="0 0 29 29" class="modal-icons item-icon" data-test-id="session-replay"><defs><circle id="a" cx="14" cy="23" r="2"></circle></defs><g fill="none" fill-rule="evenodd" transform="translate(1)"><path fill="#C6DEF6" d="M2 0h24a2 2 0 0 1 2 2v3.87H0V2a2 2 0 0 1 2-2z"></path><path stroke="#6F7C87" stroke-linecap="round" stroke-linejoin="round" stroke-width=".875" d="M6.429 23.188H1.304a.875.875 0 0 1-.875-.875v-21c0-.484.392-.875.875-.875h25.375c.483 0 .875.391.875.875v21a.875.875 0 0 1-.875.875h-5.125"></path><circle cx="3.535" cy="3.01" r="1" stroke="#448EE1" stroke-linecap="round" stroke-linejoin="round" stroke-width=".875"></circle><circle cx="6.16" cy="3.01" r="1" stroke="#448EE1" stroke-linecap="round" stroke-linejoin="round" stroke-width=".875"></circle><circle cx="8.785" cy="3.01" r="1" stroke="#448EE1" stroke-linecap="round" stroke-linejoin="round" stroke-width=".875"></circle><path stroke="#6F7C87" stroke-linecap="round" stroke-linejoin="round" stroke-width=".875" d="M.438 5.46h27.125M3.098 8.085h6.125m14 0h1.75m-6.125 0h1.75m-6.125 0h1.75"></path><circle cx="14" cy="23" r="5.375" stroke="#448EE1" stroke-width=".75"></circle><use fill="#C6DEF6" xlink:href="#a"></use><circle cx="14" cy="23" r="2.375" stroke="#448EE1" stroke-width=".75"></circle></g></svg>