<svg width="28" height="28" viewBox="0 0 28 28" xmlns="http://www.w3.org/2000/svg" class="modal-icons item-icon" data-test-id="canned-responses"><g stroke-width=".875" fill="none" fill-rule="evenodd" stroke-linecap="round" stroke-linejoin="round"><path d="M16.712 20.326l6.362 7.236v-7.236h3.613a.875.875 0 0 0 .875-.875V1.312a.875.875 0 0 0-.875-.875H1.313a.875.875 0 0 0-.875.875v18.14c0 .482.392.874.875.874h15.4z" stroke="#6F7C87"></path><path d="M14.315 5.145L15.89 8.33l3.5.508a.367.367 0 0 1 .192.62l-2.52 2.46.595 3.5a.35.35 0 0 1-.507.385L14 14.13l-3.15 1.619a.35.35 0 0 1-.508-.385l.595-3.5-2.51-2.406a.368.368 0 0 1 .192-.621l3.5-.508 1.575-3.185a.35.35 0 0 1 .621 0z" stroke="#448EE1" fill-opacity=".3" fill="#448EE1" fill-rule="nonzero"></path></g></svg>