<svg xmlns="http://www.w3.org/2000/svg" width="28" height="28" fill="none" fill-rule="evenodd" stroke-linejoin="round" stroke-width=".875" class="modal-icons item-icon" data-test-id="survey-settings"><path d="M14 .438C6.5.438.438 6.5.438 14S6.5 27.563 14 27.563 27.563 21.5 27.563 14c0-3.597-1.43-7.047-3.972-9.6S17.597.438 14 .438z" stroke="#6f7c87"></path><path d="M14 22.846a8.86 8.86 0 0 1-8.67-7.096h17.34A8.853 8.853 0 0 1 14 22.846z" stroke="#448ee1" fill-opacity=".3" fill="#448ee1" fill-rule="nonzero"></path><path d="M5.154 11.05c0-1.95 1.32-3.5 2.95-3.5s2.95 1.584 2.95 3.5m5.896 0c0-1.95 1.32-3.5 2.95-3.5s2.95 1.584 2.95 3.5" stroke="#6f7c87" stroke-linecap="round"></path></svg>