<svg xmlns="http://www.w3.org/2000/svg" width="30" height="30" class="modal-icons item-icon" data-test-id="ticket-fields"><style>.B{stroke-linejoin:round}.C{fill-rule:nonzero}</style><g fill="none" fill-rule="evenodd" class="B"><path d="M1.438 1.438h18.848m2.214 0h5.696M1.438 4.894h20.318" stroke="#6f7c87" stroke-linecap="round"></path><g stroke="#ae64ce" fill="#e6d0f0" class="C"><rect x="1.438" y="9.523" width="16.503" height="4.375" rx="1"></rect><rect x="1.438" y="16.855" width="16.503" height="4.375" rx="1"></rect></g><path d="M26.76 9.25h-.875l-.105.192a1.75 1.75 0 0 1-3.071 0l-.105-.192h-.875c-.6 0-1.085.486-1.085 1.085v10.09c.005.596.49 1.076 1.085 1.076h.875l.105-.192a1.75 1.75 0 0 1 3.071 0l.105.192h.875c.596 0 1.08-.48 1.085-1.076v-10.09A1.089 1.089 0 0 0 26.76 9.25zm-1.172 4.15v3.955a.585.585 0 0 1-.577.577h-1.505a.58.58 0 0 1-.578-.577V13.4a.58.58 0 0 1 .578-.578H25c.317.005.573.26.577.578z" stroke="#6f7c87" fill="#dadfe3" class="C"></path><rect stroke="#ae64ce" fill="#e6d0f0" x="1.438" y="24.188" width="27.125" height="4.375" rx="1" class="C"></rect></g></svg>