<svg width="28" height="28" viewBox="0 0 28 28" xmlns="http://www.w3.org/2000/svg" class="modal-icons item-icon" data-test-id="roles"><g stroke-width=".875" fill="none" fill-rule="evenodd" stroke-linecap="round" stroke-linejoin="round"><circle stroke="#6F7C87" cx="11.637" cy="6.921" r="6.484"></circle><path d="M11.637 13.414a11.209 11.209 0 0 1 5.425 1.391M11.637 13.414a11.191 11.191 0 0 0-11.2 11.2v2.957" stroke="#6F7C87"></path><path d="M27.563 22.934v-2.529h-1.9a4.147 4.147 0 0 0-.28-.674l1.348-1.356-1.75-1.75-1.356 1.33a4.156 4.156 0 0 0-.674-.28V15.75h-2.546v1.925a4.156 4.156 0 0 0-.674.28l-1.356-1.33-1.75 1.75 1.339 1.339a4.156 4.156 0 0 0-.28.674H15.75v2.528h1.899c.073.233.167.458.28.674l-1.304 1.356 1.75 1.75 1.356-1.321c.216.113.442.207.674.28v1.899h2.52v-1.881c.242-.078.476-.178.7-.298l1.339 1.339 1.75-1.75-1.339-1.339c.113-.216.207-.441.28-.674l1.907-.017zm-5.898.42a1.689 1.689 0 1 1 0-3.378 1.689 1.689 0 0 1 0 3.378z" stroke="#AE64CE" fill-opacity=".3" fill="#AE64CE" fill-rule="nonzero"></path></g></svg>