<svg xmlns="http://www.w3.org/2000/svg" viewBox="0 0 62.92 68.29" class="modal-icons item-icon" data-test-id="field-service-management"><defs><style>.cls-1{fill:#e5cff0}.cls-2{fill:#707c88}.cls-3{fill:#ae64cd}.cls-4{fill:#fff}</style></defs><g id="Layer_2" data-name="Layer 2"><g id="Layer_5" data-name="Layer 5"><path class="cls-1" d="M13.63 16.24s-1.37-7.17 3-11.87c4.85-5.21 17.45-5 21 2.3 2.64 5.45 1.06 9.66 1.06 9.66a32.14 32.14 0 0 0-13.92-2.57 30.87 30.87 0 0 0-11.14 2.48z"></path><path class="cls-2" d="M61.17 68.19H37.31a1.75 1.75 0 0 1-1.75-1.75v-33.7A1.75 1.75 0 0 1 37.31 31h7.14v3.69H54V31h7.14a1.75 1.75 0 0 1 1.75 1.75v33.7a1.75 1.75 0 0 1-1.72 1.74zm-23.86-35.7a.25.25 0 0 0-.25.25v33.7a.25.25 0 0 0 .25.25h23.86a.25.25 0 0 0 .25-.25v-33.7a.25.25 0 0 0-.25-.25h-5.64v3.69H43v-3.69z"></path><path class="cls-2" d="M55.11 32.43h-4.3v-.74a1.57 1.57 0 1 0-3.13 0v.74H44v-1.5h2.31a3.07 3.07 0 0 1 6 0h2.9z"></path><path class="cls-1" d="M11.69 43.34v11.95s-2.06.22-2.06 2.93v9.67h33.12v-9.56s.23-3.15-2.6-3.15V43.89l-3.87-1.43v12.7H15.74V42a38 38 0 0 1-4.05 1.34z"></path><path class="cls-3" d="M42.86 68.29H9.74a.75.75 0 0 1-.74-.75v-9.66a3.49 3.49 0 0 1 2.06-3.51V43a.75.75 0 0 1 1.5 0v12a.75.75 0 0 1-.67.74c-.22 0-1.39.29-1.39 2.19v8.91h31.61V58a2.93 2.93 0 0 0-.56-1.93 1.65 1.65 0 0 0-1.28-.47.75.75 0 0 1-.53-.22.71.71 0 0 1-.22-.53V43.54a.75.75 0 0 1 .75-.75.76.76 0 0 1 .75.75v10.62a2.91 2.91 0 0 1 1.63.88 4.41 4.41 0 0 1 1 3v9.5a.75.75 0 0 1-.75.75z"></path><path class="cls-3" d="M36.29 56H15.6a.76.76 0 0 1-.75-.75V42a.75.75 0 0 1 1.5 0v12.47h19.19V42.53a.75.75 0 0 1 1.5 0v12.69a.75.75 0 0 1-.75.78zM17.37 59.74h-3.69a.75.75 0 0 1 0-1.5h3.69a.75.75 0 0 1 0 1.5zM38.66 59.74H35a.75.75 0 0 1 0-1.5h3.69a.75.75 0 0 1 0 1.5z"></path><path class="cls-2" d="M49.64 67s-.64-4.19-1.82-13.07c-1-7.71-5.65-8.85-5.85-8.89h-.11l-3.1-1.19-5.6-2.28-7.09 5.92-7-6-6.11 1.77a22.53 22.53 0 0 0-6.58 2.86c-2 1.34-3 6-3.21 7.65L1.49 66.41 0 66.22l1.66-12.63c0-.27.89-6.71 3.86-8.7a23.85 23.85 0 0 1 7-3.06l6.87-2 6.69 5.66 6.81-5.69 6.42 2.62 3 1.17c.67.17 5.81 1.74 7 10.14 1.21 8.86 1.81 13 1.82 13.05z"></path><path class="cls-2" d="M18.83 34.84h1.5v5.83h-1.5zM32.2 34.77h1.5v5.83h-1.5z"></path><path class="cls-2" d="M27.57 37.24H25.2a10.77 10.77 0 0 1-10.75-10.75v-7.25H16v7.25a9.26 9.26 0 0 0 9.25 9.25h2.37a9.26 9.26 0 0 0 9.25-9.25v-7.25h1.5v7.25a10.77 10.77 0 0 1-10.8 10.75zM39.09 17.33l-.74-.33a31.65 31.65 0 0 0-13.56-2.5 30.38 30.38 0 0 0-10.86 2.42l-.85.37-.18-.92c-.06-.31-1.39-7.59 3.2-12.51C18.82.9 24-.56 29 .2c4.35.65 7.75 2.88 9.3 6.1 2.7 5.7 1.15 10.07 1.08 10.26zM25.9 13a33.56 33.56 0 0 1 12.28 2.3A13.16 13.16 0 0 0 36.94 7c-1.34-2.77-4.32-4.7-8.18-5.28-4.51-.72-9.16.55-11.57 3.13-3.16 3.4-3.11 8.27-2.93 10.28A31.85 31.85 0 0 1 24.73 13z"></path><path class="cls-2" d="M17.15 20.22a3.89 3.89 0 0 1-2.3-.7 4.62 4.62 0 0 1-1.71-2.92l1.49-.2a3.09 3.09 0 0 0 1.1 1.9 2.89 2.89 0 0 0 2.27.33c1.54-.31 2.72-.64 3.77-.94a14.88 14.88 0 0 1 4.11-.76 24.56 24.56 0 0 1 4.95.95 22 22 0 0 0 4 .82c1.69 0 2.4-.1 3.16-2.5l1.43.44c-1 3-2.23 3.56-4.59 3.56a21.76 21.76 0 0 1-4.34-.86 23.25 23.25 0 0 0-4.58-.91 13.52 13.52 0 0 0-3.71.71c-1.07.3-2.28.64-3.88 1a5.82 5.82 0 0 1-1.17.08z"></path><path class="cls-4" d="M21.46 1.82s-1.3 6.61 5 8.82a7.73 7.73 0 0 0 4.78-8.57s-3.82-1.84-9.78-.25z"></path><path class="cls-2" d="M26.51 11.45l-.26-.09c-6.84-2.4-5.5-9.6-5.49-9.67a.75.75 0 0 1 1.48.31c0 .24-1.06 5.82 4.23 7.87A7.28 7.28 0 0 0 30.56 2 .75.75 0 0 1 32 1.77a8.92 8.92 0 0 1-5.28 9.58z"></path><path class="cls-2" d="M28 4h-3.46a.75.75 0 0 1 0-1.5H28A.75.75 0 0 1 28 4zM28 6.61h-3.46a.75.75 0 0 1 0-1.5H28a.75.75 0 1 1 0 1.5zM14.37 23.39h-.64A2.75 2.75 0 0 1 11 20.64V17.8a2.75 2.75 0 0 1 2.75-2.75v1.5a1.25 1.25 0 0 0-1.25 1.25v2.84a1.25 1.25 0 0 0 1.25 1.25h.64zM38.82 23.39h-.64v-1.5h.64a1.25 1.25 0 0 0 1.25-1.25V17.8a1.25 1.25 0 0 0-1.25-1.25v-1.5a2.75 2.75 0 0 1 2.75 2.75v2.84a2.75 2.75 0 0 1-2.75 2.75zM58.42 40.28H40.83a.75.75 0 0 1 0-1.5h17.59a.75.75 0 0 1 0 1.5zM58.42 44.27H47.24a.75.75 0 0 1 0-1.5h11.18a.75.75 0 0 1 0 1.5zM58.42 48.27h-8.36a.75.75 0 0 1 0-1.5h8.36a.75.75 0 0 1 0 1.5z"></path></g></g></svg>