<svg xmlns="http://www.w3.org/2000/svg" width="28" height="28" fill="none" fill-rule="evenodd" class="modal-icons item-icon" data-test-id="groups"><g stroke="#6f7c87" stroke-width=".875" stroke-linecap="round" stroke-linejoin="round"><path d="M18.253 3.5a4.461 4.461 0 0 1 2.53-.77 4.525 4.525 0 0 1 4.083 6.838 4.504 4.504 0 0 1-4.083 2.2 3.962 3.962 0 0 1-.875-.088"></path><path d="M27.563 25.813v-7.3a6.79 6.79 0 0 0-6.781-6.781c-.245 0-.5 0-.744.044m-11.892-.14c-.288.062-.58.1-.875.088-2.42-.106-4.325-2.098-4.325-4.52S4.853 2.8 7.27 2.695c.887.016 1.75.296 2.476.805m-1.783 8.286c-.245 0-.5-.044-.744-.044-1.8-.002-3.525.7-4.798 1.984a6.77 6.77 0 0 0-1.983 4.798v7.3"></path></g><g fill="#ae64ce" fill-rule="nonzero" fill-opacity=".3"><circle stroke="#ae64ce" stroke-width=".875" stroke-linejoin="round" cx="14" cy="4.961" r="4.524"></circle><path d="M23.04 28v-9.476A9.04 9.04 0 0 0 14 9.476a9.04 9.04 0 0 0-9.039 9.048V28H23.04z"></path></g><path d="M4.96 27.563v-9.04A9.04 9.04 0 0 1 14 9.476a9.04 9.04 0 0 1 9.039 9.048v9.04" stroke="#ae64ce" stroke-width=".875" stroke-linecap="round" stroke-linejoin="round"></path></svg>