<svg width="30" height="30" viewBox="0 0 30 30" xmlns="http://www.w3.org/2000/svg" class="modal-icons item-icon" data-test-id="helpdesk"><g transform="translate(1 1)" fill="none" fill-rule="evenodd" stroke-linecap="round" stroke-linejoin="round"><path d="M5.154 11.568V9.126a8.75 8.75 0 0 1 17.5.097v2.44" stroke="#6F7C87"></path><path d="M7.298 20.834a.875.875 0 0 1-.875.875h-.875a5.171 5.171 0 0 1-5.11-5.206 5.171 5.171 0 0 1 5.197-5.128h.875a.875.875 0 0 1 .875.875l-.087 8.584zM22.365 21.788h-.875a.875.875 0 0 1-.875-.875v-8.584c0-.483.392-.875.875-.875h.875a5.171 5.171 0 0 1 5.198 5.171 5.171 5.171 0 0 1-5.198 5.163z" stroke="#AE64CE" fill="#E6D0F0" fill-rule="nonzero"></path><path d="M15.689 26.74h3.666a3.299 3.299 0 0 0 3.299-3.299v-1.653" stroke="#6F7C87"></path><rect stroke="#AE64CE" fill="#E6D0F0" fill-rule="nonzero" x="13.213" y="25.909" width="3.299" height="1.654" rx=".827"></rect></g></svg>