<svg width="29" height="28" viewBox="0 0 29 28" xmlns="http://www.w3.org/2000/svg" class="modal-icons item-icon" data-test-id="sla-policies"><g stroke-width=".875" fill="none" fill-rule="evenodd" stroke-linecap="round" stroke-linejoin="round"><path d="M2.205 15.75c0-.74.071-1.478.21-2.205l-1.978.893v2.624l1.987.875a11.83 11.83 0 0 1-.219-2.187zM25.813 15.75c-.001-.74-.072-1.478-.21-2.205l1.986.875v2.625l-1.986.875a11.83 11.83 0 0 0 .21-2.17zM14 .438v3.534M10.465.438h7.07" stroke="#6F7C87"></path><path d="M14 3.973A11.795 11.795 0 1 0 25.795 15.75C25.785 9.243 20.507 3.972 14 3.973zM14 25.2a9.433 9.433 0 1 1 9.433-9.45A9.45 9.45 0 0 1 14 25.2z" stroke="#AE64CE" fill-opacity=".3" fill="#AE64CE" fill-rule="nonzero"></path><path d="M24.614 5.154l-2.275 2.275M23.433 3.973l2.362 2.362M14 9.572v6.196l4.2 1.75" stroke="#6F7C87"></path></g></svg>