<svg width="30" height="30" viewBox="0 0 30 30" xmlns="http://www.w3.org/2000/svg" class="modal-icons item-icon" data-test-id="security"><g fill="none" fill-rule="evenodd" stroke-linecap="round" stroke-linejoin="round"><path d="M15 1.438a7.665 7.665 0 0 0-7.665 7.664v3.71h15.33v-3.71A7.665 7.665 0 0 0 15 1.437z" stroke="#6F7C87"></path><path d="M10.87 12.813V9.155a4.13 4.13 0 0 1 8.26 0v3.658h-8.26z" stroke="#6F7C87"></path><path d="M27.688 14.291a1.479 1.479 0 0 0-1.48-1.479H3.792c-.816 0-1.478.663-1.478 1.48l-.876 12.792c0 .816.663 1.479 1.48 1.479h24.167c.816 0 1.478-.663 1.478-1.48l-.875-12.792zm-11.69 6.886l.77 3.85H13.25l.77-3.85a1.75 1.75 0 0 1-.77-1.46 1.75 1.75 0 0 1 3.5 0 1.75 1.75 0 0 1-.77 1.46h.018z" stroke="#AE64CE" fill="#E6D0F0" fill-rule="nonzero"></path></g></svg>