<svg width="29" height="29" viewBox="0 0 29 29" xmlns="http://www.w3.org/2000/svg" class="modal-icons item-icon" data-test-id="tags"><g stroke-width=".875" fill="none" fill-rule="evenodd" stroke-linecap="round" stroke-linejoin="round"><path d="M27.125 15.995L22.75 20.37a1.514 1.514 0 0 1-2.144 0L7.674 7.376a1.514 1.514 0 0 1-.412-1.382l.875-4.113a.875.875 0 0 1 .7-.682l3.956-.735c.489-.093.993.06 1.347.411l12.985 12.976a1.514 1.514 0 0 1 0 2.144z" stroke="#6F7C87"></path><circle stroke="#6F7C87" transform="rotate(-45.02 11.905 5.132)" cx="11.905" cy="5.132" r="1.146"></circle><path d="M16.564 20.641L7.35 11.436a1.514 1.514 0 0 0-1.347-.42l-3.964.735a.875.875 0 0 0-.7.683l-.875 4.112c-.106.501.05 1.021.411 1.383l9.196 9.196a1.514 1.514 0 0 0 2.179 0l4.375-4.375a1.514 1.514 0 0 0-.061-2.109zm-10.64-4.147A1.146 1.146 0 1 1 4.3 14.875a1.146 1.146 0 0 1 1.624 1.619z" stroke="#AE64CE" fill-opacity=".3" fill="#AE64CE" fill-rule="nonzero"></path></g></svg>