<svg width="30" height="30" viewBox="0 0 30 30" xmlns="http://www.w3.org/2000/svg" class="modal-icons item-icon" data-test-id="day-pass"><g transform="translate(1 1)" fill="none" fill-rule="evenodd" stroke-linecap="round" stroke-linejoin="round"><path d="M7.516 27.563h-1.75A5.311 5.311 0 0 1 .437 22.25 5.311 5.311 0 0 1 5.75 16.95h1.75l.017 10.613zM22.251 27.563h-1.75V16.948h1.75a5.311 5.311 0 0 1 5.311 5.302 5.311 5.311 0 0 1-5.31 5.311z" stroke="#6F7C87"></path><path d="M22.846 27.527V12.82c.013-.23.013-.461 0-.692M16.144 4.244c-.7-.18-1.42-.271-2.144-.271a8.846 8.846 0 0 0-8.846 8.846v14.708" stroke="#6F7C87"></path><circle stroke="#E67E39" fill="#FE9" fill-rule="nonzero" cx="21.665" cy="6.335" r="5.897"></circle><path d="M21.665 2.8v7.07M25.2 6.335h-7.07" stroke="#E67E39" fill="#FE9" fill-rule="nonzero"></path></g></svg>