<svg width="30" height="30" viewBox="0 0 30 30" xmlns="http://www.w3.org/2000/svg" class="modal-icons item-icon" data-test-id="account"><g fill="none" fill-rule="evenodd" stroke-linecap="round" stroke-linejoin="round"><path d="M15 1.438h10.552a3.01 3.01 0 0 1 3.01 3.01V15c0 7.49-6.072 13.563-13.562 13.563C7.51 28.563 1.437 22.49 1.437 15S7.51 1.437 15 1.437z" stroke="#6F7C87"></path><path d="M28.563 23.059v-2.993h-2.258a4.891 4.891 0 0 0-.324-.796l1.593-1.593-2.127-2.126-1.592 1.593a4.891 4.891 0 0 0-.796-.324v-2.258h-2.993v2.258c-.274.084-.54.193-.796.324l-1.593-1.593-2.126 2.126 1.593 1.593c-.131.255-.24.522-.324.796h-2.258v2.993h2.258c.084.274.193.54.324.796l-1.593 1.593 2.126 2.126 1.593-1.593c.255.131.522.24.796.324v2.258h2.993v-2.258c.274-.084.54-.193.796-.324l1.593 1.593 2.126-2.127-1.593-1.592c.131-.255.24-.522.324-.796h2.258zm-7 .507a2.004 2.004 0 1 1 2.003-2.003 2.012 2.012 0 0 1-2.003 2.003z" stroke="#E67E39" fill="#FE9" fill-rule="nonzero"></path></g></svg>