<svg xmlns="http://www.w3.org/2000/svg" width="30" height="29" fill="none" fill-rule="evenodd" stroke-linejoin="round" class="modal-icons item-icon" data-test-id="zendesk-import"><path d="M23.25 18.7a5.25 5.25 0 0 0 5.311-5.18 5.25 5.25 0 0 0-4.891-5.136A8.75 8.75 0 0 0 15 1.438a8.75 8.75 0 0 0-8.846 8.628v.64a4.82 4.82 0 0 0-.586-.079 4.034 4.034 0 1 0 0 8.062l17.684.018z" stroke="#6f7c87"></path><g stroke="#e67e39"><circle fill="#fe9" fill-rule="nonzero" cx="15" cy="21.528" r="7"></circle><path d="M15 25.535V17.53m-3 5.004l3 3 3-3" stroke-linecap="round"></path></g></svg>