<svg width="32" height="32" viewBox="0 0 32 32" xmlns="http://www.w3.org/2000/svg" class="modal-icons item-icon" data-test-id="audit-log"><g fill="none" fill-rule="evenodd" stroke-linecap="round" stroke-linejoin="round"><path d="M5.23.55v4a1 1 0 0 1-.94 1H.5l4.73-5z" stroke="#6F7C87" fill="#DADFE3" fill-rule="nonzero"></path><path d="M25 9.47v-8a1 1 0 0 0-.94-1H5.23L.5 5.58V30.5a1 1 0 0 0 .94 1h22.61a1 1 0 0 0 .94-1V30M5.62 12.09h10.31M5.62 8.73h15.31M5.62 15.75h8.31M5.62 19.41h7.31M5.62 23.07h5.01" stroke="#6F7C87"></path><circle stroke="#E67E39" fill="#FE9" fill-rule="nonzero" cx="23.5" cy="19.5" r="8"></circle><path stroke="#E67E39" d="M23.5 14.61v4.89h2.9"></path></g></svg>