<svg xmlns="http://www.w3.org/2000/svg" width="30" height="30" class="modal-icons item-icon" data-test-id="billing"><style>.B{stroke-linejoin:round}.C{stroke-linecap:round}.D{fill-rule:nonzero}</style><g fill="none" fill-rule="evenodd" class="B"><g stroke="#6f7c87"><rect x="1.438" y="1.438" width="27.125" height="17.693" rx="1.35"></rect><path fill="#dadfe3" d="M1.438 4.973h27.125v3.535H1.438z" class="D"></path><path d="M18.3 15.586h2.363m-7.09 0h2.362m-7.078 0h2.354m-7.072 0h2.354" class="C"></path></g><g stroke="#e67e39" fill="#fe9" class="D"><path d="M16.62 14.563h4.944a7 7 0 1 1 0 14H16.62M19.095 14.563a7 7 0 1 1 0 14" class="C"></path><circle cx="16.619" cy="21.563" r="7"></circle><g class="C"><path d="M14.71 23.155a1.75 1.75 0 0 0 1.907 1.592 1.75 1.75 0 0 0 1.881-1.592 1.75 1.75 0 0 0-1.907-1.593 1.75 1.75 0 0 1-1.908-1.593 1.75 1.75 0 0 1 1.908-1.592A1.75 1.75 0 0 1 18.5 19.97M16.62 17.748v7.63"></path></g></g></g></svg>