<svg xmlns="http://www.w3.org/2000/svg" width="30" height="30" fill="none" fill-rule="evenodd" class="modal-icons item-icon" data-test-id="activity-export"><g stroke="#979797"><rect x=".5" y="8.5" width="29" height="21" rx="1"></rect><path d="M.5 12.5h29V9a.5.5 0 0 0-.5-.5H1a.5.5 0 0 0-.5.5v3.5z" fill="#dadfe3" fill-rule="nonzero"></path></g><rect stroke="#e67e39" stroke-width=".8" fill="#fe9" fill-rule="nonzero" x="8" y="1" width="14" height="14" rx="7"></rect><g stroke="#979797" stroke-linecap="round" stroke-linejoin="round"><path d="M7.5 25.523l2.784-2.783a1.18 1.18 0 0 1 1.671 0l1.817 1.817a1.18 1.18 0 0 0 1.67 0L21.5 18.5"></path><path d="M17.513 18.5H21.5v3.986"></path></g><path d="M12 7l3-3 3 3m-3-3v8" stroke="#e67e39" stroke-width=".9" stroke-linecap="round" stroke-linejoin="round"></path></svg>